<?xml version="1.0" encoding="UTF-8" standalone="no"?>
<!-- Created with Inkscape (http://www.inkscape.org/) -->

<svg
   xmlns:dc="http://purl.org/dc/elements/1.1/"
   xmlns:cc="http://creativecommons.org/ns#"
   xmlns:rdf="http://www.w3.org/1999/02/22-rdf-syntax-ns#"
   xmlns:svg="http://www.w3.org/2000/svg"
   xmlns="http://www.w3.org/2000/svg"
   version="1.1"
   width="150"
   height="21"
   id="svg3065">
  <metadata
     id="metadata3098">
    <rdf:RDF>
      <cc:Work
         rdf:about="">
        <dc:format>image/svg+xml</dc:format>
        <dc:type
           rdf:resource="http://purl.org/dc/dcmitype/StillImage" />
        <dc:title></dc:title>
      </cc:Work>
    </rdf:RDF>
  </metadata>
  <defs
     id="defs3096" />
  <linearGradient
     x1="0"
     y1="0"
     x2="0"
     y2="42.638012"
     id="a"
     gradientUnits="userSpaceOnUse"
     gradientTransform="matrix(2.3687784,0,0,0.42215853,-4.3507636,-3.3957179)">
    <stop
       id="stop3068"
       style="stop-color:#ffffff;stop-opacity:0.69999999"
       offset="0" />
    <stop
       id="stop3070"
       style="stop-color:#aaaaaa;stop-opacity:0.1"
       offset="0.1" />
    <stop
       id="stop3072"
       style="stop-color:#000000;stop-opacity:0.30000001"
       offset="0.89999998" />
    <stop
       id="stop3074"
       style="stop-color:#000000;stop-opacity:0.5"
       offset="1" />
  </linearGradient>
  <rect
     width="150.13844"
     height="20.813938"
     rx="5.9460769"
     x="0"
     y="0.18606162"
     id="rect3076"
     style="fill:#479de4;fill-opacity:1" />
  <g
     transform="matrix(1.1827873,0,0,1.1563299,6.1879944,0.1860616)"
     id="text3868"
     style="font-size:6.75063324px;font-style:normal;font-weight:normal;line-height:125%;letter-spacing:0px;word-spacing:0px;fill:#ffffff;fill-opacity:1;stroke:none;font-family:Sans">
    <path
       d="m 18.091988,12.575877 0,-7.7315843 1.023143,0 0,7.7315843 -1.023143,0"
       id="path3987"
       style="font-size:10.80101299px;font-variant:normal;font-stretch:normal;letter-spacing:-0.39517495px;fill:#ffffff;font-family:Arial;-inkscape-font-specification:Arial" />
    <path
       d="m 20.397067,12.575877 0,-5.6009157 0.854377,0 0,0.7963637 c 0.411364,-0.6152866 1.00556,-0.9229324 1.782589,-0.9229381 0.337528,5.7e-6 0.646931,0.061535 0.928212,0.1845876 0.284788,0.1195479 0.497503,0.2777657 0.638146,0.4746539 0.140633,0.1968984 0.239079,0.4307091 0.29534,0.701433 0.03515,0.1758019 0.05273,0.4834477 0.05274,0.9229381 l 0,3.4438775 -0.949308,0 0,-3.40696 C 23.999158,8.7821658 23.96224,8.4938578 23.88841,8.3039922 23.81457,8.1106191 23.682722,7.9576752 23.492865,7.8451601 23.306516,7.7291384 23.086769,7.6711252 22.833623,7.6711203 c -0.404337,4.9e-6 -0.754174,0.1283371 -1.049512,0.3849971 -0.291826,0.2566689 -0.437738,0.7436282 -0.437737,1.4608792 l 0,3.0588804 -0.949307,0"
       id="path3989"
       style="font-size:10.80101299px;font-variant:normal;font-stretch:normal;letter-spacing:-0.39517495px;fill:#ffffff;font-family:Arial;-inkscape-font-specification:Arial" />
    <path
       d="m 25.634451,10.904041 0.93876,-0.14767 c 0.05274,0.376208 0.19865,0.664516 0.437737,0.864924 0.242599,0.200411 0.58013,0.300615 1.012595,0.300615 0.435975,0 0.759442,-0.0879 0.970403,-0.263697 0.210954,-0.179313 0.316432,-0.388512 0.316436,-0.627598 -4e-6,-0.214471 -0.09318,-0.383237 -0.279518,-0.506297 C 28.90077,10.439937 28.577302,10.3327 28.06046,10.202608 27.364299,10.026813 26.880856,9.8756266 26.610129,9.7490496 26.342915,9.6189622 26.13899,9.4414067 25.998353,9.2163824 25.86123,8.987849 25.792669,8.7364584 25.792669,8.4622101 c 0,-0.2496284 0.05626,-0.4799232 0.168766,-0.6908851 0.116026,-0.2144682 0.272486,-0.3920237 0.46938,-0.5326671 0.147669,-0.1089892 0.348078,-0.2004039 0.601228,-0.2742445 0.256663,-0.077345 0.530907,-0.1160208 0.822734,-0.1160265 0.439491,5.7e-6 0.824488,0.063293 1.154991,0.1898616 0.334012,0.1265797 0.580128,0.2988614 0.73835,0.5168453 0.158214,0.2144781 0.267208,0.5027861 0.326984,0.8649249 L 29.14689,8.546593 C 29.104695,8.2582891 28.981637,8.0332682 28.777715,7.8715297 28.577302,7.7098007 28.29251,7.6289338 27.923338,7.6289289 c -0.435981,4.9e-6 -0.747142,0.072082 -0.933486,0.2162312 -0.186347,0.1441587 -0.27952,0.3129244 -0.279518,0.5062975 -2e-6,0.1230625 0.03867,0.2338149 0.116026,0.3322577 0.07735,0.1019665 0.19865,0.1863493 0.363901,0.2531487 0.09493,0.035163 0.374447,0.1160301 0.838556,0.2426009 0.671544,0.1793169 1.139165,0.3269869 1.402865,0.4430103 0.267209,0.1125134 0.476408,0.2777631 0.627598,0.4957498 0.151182,0.217991 0.226775,0.488719 0.22678,0.812185 -5e-6,0.316438 -0.09318,0.615293 -0.279519,0.896569 -0.182834,0.277761 -0.448288,0.493992 -0.796364,0.648693 -0.348083,0.151186 -0.741869,0.226779 -1.18136,0.22678 -0.727805,-10e-7 -1.283325,-0.151186 -1.666563,-0.453559 -0.379724,-0.302371 -0.622324,-0.750655 -0.727803,-1.344852"
       id="path3991"
       style="font-size:10.80101299px;font-variant:normal;font-stretch:normal;letter-spacing:-0.39517495px;fill:#ffffff;font-family:Arial;-inkscape-font-specification:Arial" />
    <path
       d="m 33.092162,11.726774 0.137122,0.838555 c -0.267215,0.05626 -0.5063,0.08438 -0.717255,0.08438 -0.344565,0 -0.611777,-0.0545 -0.801637,-0.163492 -0.189863,-0.108994 -0.323469,-0.25139 -0.400819,-0.427188 -0.07735,-0.179313 -0.116028,-0.553762 -0.116027,-1.123348 l 0,-3.2223722 -0.696159,0 0,-0.7383505 0.696159,0 0,-1.3870442 0.944034,-0.5695846 0,1.9566288 0.954582,0 0,0.7383505 -0.954582,0 0,3.2751122 c -2e-6,0.270729 0.01582,0.444769 0.04747,0.522119 0.03516,0.07735 0.08966,0.138881 0.163492,0.184588 0.07735,0.04571 0.186344,0.06856 0.326984,0.06856 0.105476,0 0.244356,-0.01231 0.416641,-0.03692"
       id="path3993"
       style="font-size:10.80101299px;font-variant:normal;font-stretch:normal;letter-spacing:-0.39517495px;fill:#ffffff;font-family:Arial;-inkscape-font-specification:Arial" />
    <path
       d="m 37.27476,11.884992 c -0.3516,0.298857 -0.690889,0.509814 -1.017869,0.632872 -0.323471,0.123058 -0.67155,0.184587 -1.044239,0.184588 -0.615294,-10e-7 -1.088189,-0.149428 -1.418688,-0.448285 -0.3305,-0.302371 -0.49575,-0.687368 -0.495749,-1.154991 -10e-7,-0.274243 0.06153,-0.523875 0.184587,-0.748898 0.126574,-0.228535 0.290066,-0.4113642 0.490476,-0.5484891 0.203924,-0.1371193 0.432461,-0.2408399 0.685611,-0.311162 0.186344,-0.04922 0.46762,-0.096686 0.843829,-0.1423962 0.766475,-0.091411 1.330785,-0.200406 1.692933,-0.3269838 0.0035,-0.1300866 0.0053,-0.2127115 0.0053,-0.2478748 -4e-6,-0.3867508 -0.08966,-0.659237 -0.26897,-0.8174595 -0.242605,-0.2144684 -0.60299,-0.3217049 -1.081156,-0.3217098 -0.446529,4.9e-6 -0.777028,0.079114 -0.991499,0.2373269 -0.210959,0.1547066 -0.367419,0.4307088 -0.46938,0.8280074 L 33.461707,8.5729627 c 0.08438,-0.3972985 0.223262,-0.71725 0.41664,-0.9598556 0.193377,-0.2461117 0.472895,-0.4342151 0.838555,-0.5643108 0.365658,-0.1336006 0.78933,-0.2004037 1.271018,-0.2004094 0.478166,5.7e-6 0.866679,0.056261 1.165539,0.1687658 0.298852,0.112516 0.518599,0.2549121 0.659242,0.4271885 0.140633,0.1687708 0.239079,0.3832438 0.29534,0.6434198 0.03164,0.1617382 0.04746,0.4535621 0.04747,0.8754727 l 0,1.2657433 c -5e-6,0.882507 0.01933,1.441543 0.05801,1.677111 0.04219,0.232053 0.123053,0.455316 0.242601,0.669789 l -0.991499,0 C 37.36617,12.378984 37.302883,12.148689 37.27476,11.884992 M 37.19565,9.7648714 c -0.344568,0.1406408 -0.861413,0.2601836 -1.550537,0.3586276 -0.390273,0.05626 -0.666275,0.119545 -0.828007,0.189861 -0.161736,0.07032 -0.286552,0.174042 -0.374449,0.311162 -0.0879,0.133608 -0.13185,0.283036 -0.131848,0.448285 -2e-6,0.25315 0.09493,0.464107 0.284792,0.632871 0.193376,0.168767 0.474652,0.25315 0.843829,0.253149 0.365657,1e-6 0.690882,-0.07911 0.975678,-0.237327 0.284788,-0.161733 0.493987,-0.38148 0.627598,-0.659241 0.101958,-0.214472 0.152939,-0.530907 0.152944,-0.949308 l 0,-0.3480796"
       id="path3995"
       style="font-size:10.80101299px;font-variant:normal;font-stretch:normal;letter-spacing:-0.39517495px;fill:#ffffff;font-family:Arial;-inkscape-font-specification:Arial" />
    <path
       d="m 39.215936,12.575877 0,-7.7315843 0.949308,0 0,7.7315843 -0.949308,0"
       id="path3997"
       style="font-size:10.80101299px;font-variant:normal;font-stretch:normal;letter-spacing:-0.39517495px;fill:#ffffff;font-family:Arial;-inkscape-font-specification:Arial" />
    <path
       d="m 41.225675,12.575877 0,-7.7315843 0.949308,0 0,7.7315843 -0.949308,0"
       id="path3999"
       style="font-size:10.80101299px;font-variant:normal;font-stretch:normal;letter-spacing:-0.39517495px;fill:#ffffff;font-family:Arial;-inkscape-font-specification:Arial" />
    <path
       d="m 45.503574,9.7754192 c 0,-1.0372028 0.288308,-1.8054381 0.864925,-2.3047083 0.481684,-0.4148771 1.068848,-0.6223183 1.761494,-0.622324 0.76999,5.7e-6 1.399345,0.2531542 1.888067,0.7594462 0.488713,0.502786 0.733071,1.1989444 0.733077,2.0884771 -6e-6,0.7207728 -0.109,1.2885988 -0.326984,1.7034798 -0.214478,0.411368 -0.529156,0.731319 -0.944034,0.959856 -0.41137,0.228537 -0.861412,0.342805 -1.350126,0.342806 -0.78406,-10e-7 -1.41869,-0.251391 -1.90389,-0.754173 -0.481686,-0.50278 -0.722529,-1.227066 -0.722529,-2.1728598 m 0.975678,0 c -1e-6,0.7172568 0.156458,1.2551978 0.46938,1.6138228 0.312918,0.355113 0.706704,0.532668 1.181361,0.532668 0.471134,0 0.863163,-0.179313 1.176086,-0.537941 0.312916,-0.358626 0.469376,-0.905357 0.46938,-1.6401934 -4e-6,-0.6926395 -0.158222,-1.2165163 -0.474653,-1.5716317 -0.312924,-0.3586227 -0.703195,-0.5379362 -1.170813,-0.5379411 -0.474657,4.9e-6 -0.868443,0.1775605 -1.181361,0.5326671 -0.312922,0.3551155 -0.469381,0.8912981 -0.46938,1.6085493"
       id="path4001"
       style="font-size:10.80101299px;font-variant:normal;font-stretch:normal;letter-spacing:-0.39517495px;fill:#ffffff;font-family:Arial;-inkscape-font-specification:Arial" />
    <path
       d="m 51.474035,12.575877 0,-5.6009157 0.854377,0 0,0.7963637 c 0.411365,-0.6152866 1.005561,-0.9229324 1.782589,-0.9229381 0.337528,5.7e-6 0.646932,0.061535 0.928212,0.1845876 0.284788,0.1195479 0.497503,0.2777657 0.638146,0.4746539 0.140633,0.1968984 0.23908,0.4307091 0.29534,0.701433 0.03516,0.1758019 0.05273,0.4834477 0.05274,0.9229381 l 0,3.4438775 -0.949308,0 0,-3.40696 c -4e-6,-0.3867512 -0.03692,-0.6750592 -0.110753,-0.8649248 -0.07384,-0.1933731 -0.205687,-0.346317 -0.395545,-0.4588321 -0.186349,-0.1160217 -0.406096,-0.1740349 -0.659241,-0.1740398 -0.404338,4.9e-6 -0.754175,0.1283371 -1.049513,0.3849971 -0.291826,0.2566689 -0.437738,0.7436282 -0.437736,1.4608792 l 0,3.0588804 -0.949308,0"
       id="path4003"
       style="font-size:10.80101299px;font-variant:normal;font-stretch:normal;letter-spacing:-0.39517495px;fill:#ffffff;font-family:Arial;-inkscape-font-specification:Arial" />
    <path
       d="m 59.812861,12.575877 0,-7.7315843 2.663336,0 c 0.601224,7.7e-6 1.060056,0.036925 1.376496,0.1107526 0.443005,0.1019702 0.82097,0.2865576 1.133896,0.5537628 0.407844,0.3445703 0.711974,0.7858222 0.91239,1.323757 0.203918,0.5344303 0.305881,1.1462059 0.305888,1.8353284 -7e-6,0.5871677 -0.06857,1.1075285 -0.205683,1.5610835 -0.13713,0.45356 -0.312927,0.829767 -0.527394,1.128622 -0.214479,0.295341 -0.450048,0.529152 -0.706707,0.701433 -0.253154,0.168766 -0.5608,0.297098 -0.922938,0.384997 -0.358632,0.0879 -0.771756,0.131848 -1.239374,0.131848 l -2.78991,0 m 1.023143,-0.91239 1.650741,0 c 0.509809,10e-7 0.90887,-0.04746 1.197182,-0.142396 0.29182,-0.09493 0.523872,-0.228536 0.696159,-0.400819 0.242596,-0.242599 0.430699,-0.567825 0.564311,-0.975678 0.137116,-0.4113634 0.205677,-0.9088705 0.205684,-1.4925223 -7e-6,-0.8086649 -0.133613,-1.4292303 -0.400819,-1.8616981 C 64.48556,6.3544015 64.16385,6.0625775 63.784132,5.9149009 63.509883,5.809429 63.068631,5.7566898 62.460375,5.756683 l -1.624371,0 0,5.906804"
       id="path4005"
       style="font-size:10.80101299px;font-variant:normal;font-stretch:normal;letter-spacing:-0.39517495px;fill:#ffffff;font-family:Arial;-inkscape-font-specification:Arial" />
    <path
       d="m 67.107079,5.9359966 0,-1.0917039 0.949307,0 0,1.0917039 -0.949307,0 m 0,6.6398804 0,-5.6009157 0.949307,0 0,5.6009157 -0.949307,0"
       id="path4007"
       style="font-size:10.80101299px;font-variant:normal;font-stretch:normal;letter-spacing:-0.39517495px;fill:#ffffff;font-family:Arial;-inkscape-font-specification:Arial" />
    <path
       d="m 68.937504,13.039983 0.922938,0.137122 c 0.03867,0.284792 0.145911,0.492233 0.32171,0.622324 0.235567,0.175797 0.557276,0.263696 0.965129,0.263697 0.439492,-1e-6 0.778781,-0.0879 1.017869,-0.263697 0.239081,-0.175798 0.400815,-0.421915 0.485202,-0.73835 0.04922,-0.193378 0.07207,-0.59947 0.06856,-1.218278 -0.414886,0.488718 -0.931731,0.733076 -1.550536,0.733076 -0.769996,0 -1.36595,-0.27776 -1.787863,-0.833281 -0.421915,-0.55552 -0.632872,-1.221792 -0.632872,-1.9988204 0,-0.5344217 0.09669,-1.0266549 0.290067,-1.476701 0.193376,-0.4535534 0.472894,-0.8033905 0.838555,-1.0495124 0.369173,-0.2461113 0.801635,-0.3691696 1.297387,-0.3691753 0.660996,5.7e-6 1.205969,0.267218 1.634919,0.8016377 l 0,-0.6750633 0.875473,0 0,4.8414697 c -5e-6,0.871957 -0.08966,1.489006 -0.268971,1.85115 -0.175802,0.365658 -0.457078,0.653966 -0.843829,0.864925 -0.383243,0.210955 -0.856138,0.316434 -1.418688,0.316436 -0.668033,-2e-6 -1.207732,-0.151188 -1.619097,-0.453558 -0.411367,-0.298858 -0.610018,-0.750658 -0.595954,-1.355401 M 69.72332,9.6752145 c -2e-6,0.7348365 0.14591,1.2710195 0.437736,1.6085495 0.291822,0.337532 0.657481,0.506298 1.096978,0.506297 0.435975,1e-6 0.801634,-0.167007 1.096978,-0.501023 0.295336,-0.33753 0.443006,-0.864923 0.44301,-1.5821799 -4e-6,-0.6856076 -0.152948,-1.2024524 -0.458832,-1.550536 -0.302376,-0.3480748 -0.668035,-0.5221144 -1.096978,-0.5221193 -0.421917,4.9e-6 -0.780544,0.1722865 -1.075882,0.5168453 -0.295342,0.3410517 -0.443012,0.8491067 -0.44301,1.5241664"
       id="path4009"
       style="font-size:10.80101299px;font-variant:normal;font-stretch:normal;letter-spacing:-0.39517495px;fill:#ffffff;font-family:Arial;-inkscape-font-specification:Arial" />
    <path
       d="m 74.733925,5.9359966 0,-1.0917039 0.949308,0 0,1.0917039 -0.949308,0 m 0,6.6398804 0,-5.6009157 0.949308,0 0,5.6009157 -0.949308,0"
       id="path4011"
       style="font-size:10.80101299px;font-variant:normal;font-stretch:normal;letter-spacing:-0.39517495px;fill:#ffffff;font-family:Arial;-inkscape-font-specification:Arial" />
    <path
       d="m 78.811045,11.726774 0.137123,0.838555 c -0.267216,0.05626 -0.5063,0.08438 -0.717255,0.08438 -0.344566,0 -0.611778,-0.0545 -0.801638,-0.163492 -0.189863,-0.108994 -0.323469,-0.25139 -0.400819,-0.427188 -0.07735,-0.179313 -0.116027,-0.553762 -0.116026,-1.123348 l 0,-3.2223722 -0.696159,0 0,-0.7383505 0.696159,0 0,-1.3870442 0.944034,-0.5695846 0,1.9566288 0.954581,0 0,0.7383505 -0.954581,0 0,3.2751122 c -2e-6,0.270729 0.01582,0.444769 0.04747,0.522119 0.03516,0.07735 0.08965,0.138881 0.163492,0.184588 0.07735,0.04571 0.186343,0.06856 0.326984,0.06856 0.105476,0 0.244356,-0.01231 0.41664,-0.03692"
       id="path4013"
       style="font-size:10.80101299px;font-variant:normal;font-stretch:normal;letter-spacing:-0.39517495px;fill:#ffffff;font-family:Arial;-inkscape-font-specification:Arial" />
    <path
       d="m 82.993643,11.884992 c -0.351599,0.298857 -0.690889,0.509814 -1.017869,0.632872 -0.323471,0.123058 -0.67155,0.184587 -1.044238,0.184588 -0.615294,-10e-7 -1.08819,-0.149428 -1.418688,-0.448285 -0.3305,-0.302371 -0.49575,-0.687368 -0.49575,-1.154991 0,-0.274243 0.06153,-0.523875 0.184588,-0.748898 0.126574,-0.228535 0.290065,-0.4113642 0.490476,-0.5484891 0.203924,-0.1371193 0.43246,-0.2408399 0.685611,-0.311162 0.186343,-0.04922 0.467619,-0.096686 0.843829,-0.1423962 0.766475,-0.091411 1.330785,-0.200406 1.692932,-0.3269838 0.0035,-0.1300866 0.0053,-0.2127115 0.0053,-0.2478748 -4e-6,-0.3867508 -0.08966,-0.659237 -0.268971,-0.8174595 -0.242604,-0.2144684 -0.602989,-0.3217049 -1.081156,-0.3217098 -0.446528,4.9e-6 -0.777028,0.079114 -0.991499,0.2373269 -0.210959,0.1547066 -0.367419,0.4307088 -0.46938,0.8280074 L 79.18059,8.5729627 c 0.08438,-0.3972985 0.223262,-0.71725 0.416641,-0.9598556 0.193376,-0.2461117 0.472894,-0.4342151 0.838555,-0.5643108 0.365657,-0.1336006 0.789329,-0.2004037 1.271018,-0.2004094 0.478166,5.7e-6 0.866679,0.056261 1.165539,0.1687658 0.298851,0.112516 0.518598,0.2549121 0.659241,0.4271885 0.140633,0.1687708 0.23908,0.3832438 0.29534,0.6434198 0.03164,0.1617382 0.04746,0.4535621 0.04747,0.8754727 l 0,1.2657433 c -6e-6,0.882507 0.01933,1.441543 0.05801,1.677111 0.04219,0.232053 0.123053,0.455316 0.242601,0.669789 l -0.991499,0 c -0.09845,-0.196893 -0.161739,-0.427188 -0.189862,-0.690885 m -0.07911,-2.1201206 c -0.344567,0.1406408 -0.861412,0.2601836 -1.550536,0.3586276 -0.390273,0.05626 -0.666275,0.119545 -0.828007,0.189861 -0.161736,0.07032 -0.286552,0.174042 -0.37445,0.311162 -0.0879,0.133608 -0.131849,0.283036 -0.131848,0.448285 -10e-7,0.25315 0.09493,0.464107 0.284793,0.632871 0.193375,0.168767 0.474651,0.25315 0.843829,0.253149 0.365656,1e-6 0.690882,-0.07911 0.975677,-0.237327 0.284789,-0.161733 0.493988,-0.38148 0.627598,-0.659241 0.101958,-0.214472 0.15294,-0.530907 0.152944,-0.949308 l 0,-0.3480796"
       id="path4015"
       style="font-size:10.80101299px;font-variant:normal;font-stretch:normal;letter-spacing:-0.39517495px;fill:#ffffff;font-family:Arial;-inkscape-font-specification:Arial" />
    <path
       d="m 84.934824,12.575877 0,-7.7315843 0.949307,0 0,7.7315843 -0.949307,0"
       id="path4017"
       style="font-size:10.80101299px;font-variant:normal;font-stretch:normal;letter-spacing:-0.39517495px;fill:#ffffff;font-family:Arial;-inkscape-font-specification:Arial" />
    <path
       d="m 86.775793,8.8102897 c -10e-7,-1.2833185 0.344563,-2.2871226 1.033691,-3.0114153 0.689124,-0.7277951 1.57866,-1.0916961 2.668609,-1.0917039 0.713734,7.8e-6 1.357153,0.1705315 1.930259,0.5115714 0.573094,0.3410546 1.009072,0.817466 1.307936,1.4292356 0.302364,0.6082655 0.45355,1.2991499 0.453558,2.0726553 -8e-6,0.784061 -0.158226,1.4854932 -0.474654,2.1042992 -0.316443,0.618809 -0.764727,1.088188 -1.344853,1.40814 -0.580138,0.316436 -1.205977,0.474653 -1.87752,0.474653 -0.727806,0 -1.378257,-0.175797 -1.951355,-0.527393 -0.573102,-0.351594 -1.007322,-0.831522 -1.302661,-1.439783 -0.295341,-0.608258 -0.443011,-1.251677 -0.44301,-1.9302593 m 1.054786,0.015822 c -10e-7,0.9317309 0.249631,1.6665643 0.748899,2.2045033 0.502778,0.534426 1.132134,0.801639 1.888067,0.801638 0.769989,1e-6 1.402861,-0.270728 1.898616,-0.812186 0.499259,-0.541455 0.748891,-1.3096898 0.748898,-2.3047078 -7e-6,-0.6293514 -0.107243,-1.1778398 -0.32171,-1.6454668 -0.210963,-0.471132 -0.522125,-0.835033 -0.933486,-1.091704 -0.407856,-0.2601738 -0.866687,-0.390264 -1.376496,-0.390271 -0.72429,7e-6 -1.348371,0.2496395 -1.872246,0.7488984 -0.520363,0.4957553 -0.780543,1.3255198 -0.780542,2.4892959"
       id="path4019"
       style="font-size:10.80101299px;font-variant:normal;font-stretch:normal;letter-spacing:-0.39517495px;fill:#ffffff;font-family:Arial;-inkscape-font-specification:Arial" />
    <path
       d="m 98.621413,10.524318 0.933485,0.1213 c -0.101967,0.643421 -0.363906,1.14796 -0.785815,1.513619 -0.418403,0.362143 -0.93349,0.543214 -1.545263,0.543215 -0.76648,-10e-7 -1.383529,-0.249633 -1.85115,-0.748899 -0.464106,-0.50278 -0.696159,-1.221792 -0.696159,-2.157038 0,-0.6047409 0.100204,-1.1338915 0.300614,-1.5874536 0.200409,-0.4535534 0.504539,-0.7928426 0.912391,-1.0178689 0.411364,-0.2285315 0.85789,-0.3427999 1.339578,-0.3428056 0.608257,5.7e-6 1.105764,0.1547076 1.492523,0.464106 0.38675,0.305893 0.634625,0.741871 0.743625,1.3079352 L 98.542304,8.7628243 C 98.4544,8.3866213 98.297941,8.1035872 98.072924,7.9137212 97.851415,7.7238645 97.582445,7.6289338 97.266012,7.6289289 c -0.478172,4.9e-6 -0.866685,0.1722865 -1.165539,0.5168453 -0.298858,0.3410517 -0.448286,0.8825082 -0.448284,1.6243711 -2e-6,0.7524167 0.144152,1.2991467 0.432462,1.6401927 0.288306,0.341049 0.664513,0.511572 1.128622,0.511572 0.372688,0 0.683849,-0.114268 0.933486,-0.342806 0.249628,-0.228536 0.407846,-0.580131 0.474654,-1.054786"
       id="path4021"
       style="font-size:10.80101299px;font-variant:normal;font-stretch:normal;letter-spacing:-0.39517495px;fill:#ffffff;font-family:Arial;-inkscape-font-specification:Arial" />
    <path
       d="m 103.80606,10.772192 0.98095,0.121301 c -0.15471,0.573102 -0.44126,1.017869 -0.85965,1.334305 -0.4184,0.316436 -0.95283,0.474653 -1.60328,0.474654 -0.81922,-10e-7 -1.46967,-0.251391 -1.95135,-0.754173 -0.478171,-0.506296 -0.717256,-1.21476 -0.717255,-2.1253944 -10e-7,-0.9422722 0.2426,-1.67359 0.727805,-2.1939557 0.4852,-0.5203559 1.11455,-0.7805363 1.88806,-0.780542 0.7489,5.7e-6 1.36068,0.2549122 1.83533,0.7647202 0.47465,0.5098179 0.71198,1.2270719 0.71198,2.1517643 0,0.056258 -0.002,0.1406408 -0.005,0.2531486 l -4.17695,0 c 0.0352,0.615294 0.20919,1.086432 0.52212,1.413414 0.31291,0.326985 0.70318,0.490476 1.17081,0.490476 0.34807,0 0.64517,-0.09141 0.89129,-0.274245 0.24612,-0.182828 0.44125,-0.474652 0.58541,-0.875473 m -3.11689,-1.5347138 3.12744,0 c -0.0422,-0.4711342 -0.16174,-0.8244873 -0.35863,-1.0600604 -0.30238,-0.3656545 -0.6944,-0.548484 -1.17609,-0.5484889 -0.43598,4.9e-6 -0.8034,0.1459169 -1.10225,0.4377363 -0.29534,0.2918285 -0.45883,0.6820991 -0.49047,1.170813"
       id="path4023"
       style="font-size:10.80101299px;font-variant:normal;font-stretch:normal;letter-spacing:-0.39517495px;fill:#ffffff;font-family:Arial;-inkscape-font-specification:Arial" />
    <path
       d="m 109.24386,11.884992 c -0.3516,0.298857 -0.69089,0.509814 -1.01787,0.632872 -0.32347,0.123058 -0.67155,0.184587 -1.04424,0.184588 -0.61529,-10e-7 -1.08819,-0.149428 -1.41869,-0.448285 -0.3305,-0.302371 -0.49575,-0.687368 -0.49575,-1.154991 0,-0.274243 0.0615,-0.523875 0.18459,-0.748898 0.12657,-0.228535 0.29006,-0.4113642 0.49048,-0.5484891 0.20392,-0.1371193 0.43246,-0.2408399 0.68561,-0.311162 0.18634,-0.04922 0.46762,-0.096686 0.84383,-0.1423962 0.76647,-0.091411 1.33078,-0.200406 1.69293,-0.3269838 0.004,-0.1300866 0.005,-0.2127115 0.005,-0.2478748 0,-0.3867508 -0.0897,-0.659237 -0.26897,-0.8174595 -0.2426,-0.2144684 -0.60299,-0.3217049 -1.08116,-0.3217098 -0.44652,4.9e-6 -0.77702,0.079114 -0.99149,0.2373269 -0.21096,0.1547066 -0.36742,0.4307088 -0.46938,0.8280074 L 105.4308,8.5729627 c 0.0844,-0.3972985 0.22327,-0.71725 0.41664,-0.9598556 0.19338,-0.2461117 0.4729,-0.4342151 0.83856,-0.5643108 0.36566,-0.1336006 0.78933,-0.2004037 1.27102,-0.2004094 0.47816,5.7e-6 0.86668,0.056261 1.16554,0.1687658 0.29885,0.112516 0.51859,0.2549121 0.65924,0.4271885 0.14063,0.1687708 0.23908,0.3832438 0.29534,0.6434198 0.0316,0.1617382 0.0475,0.4535621 0.0475,0.8754727 l 0,1.2657433 c 0,0.882507 0.0193,1.441543 0.058,1.677111 0.0422,0.232053 0.12305,0.455316 0.2426,0.669789 l -0.9915,0 c -0.0984,-0.196893 -0.16174,-0.427188 -0.18986,-0.690885 m -0.0791,-2.1201206 c -0.34457,0.1406408 -0.86141,0.2601836 -1.55054,0.3586276 -0.39027,0.05626 -0.66627,0.119545 -0.82801,0.189861 -0.16173,0.07032 -0.28655,0.174042 -0.37444,0.311162 -0.0879,0.133608 -0.13185,0.283036 -0.13185,0.448285 0,0.25315 0.0949,0.464107 0.28479,0.632871 0.19337,0.168767 0.47465,0.25315 0.84383,0.253149 0.36565,1e-6 0.69088,-0.07911 0.97568,-0.237327 0.28478,-0.161733 0.49398,-0.38148 0.62759,-0.659241 0.10196,-0.214472 0.15294,-0.530907 0.15295,-0.949308 l 0,-0.3480796"
       id="path4025"
       style="font-size:10.80101299px;font-variant:normal;font-stretch:normal;letter-spacing:-0.39517495px;fill:#ffffff;font-family:Arial;-inkscape-font-specification:Arial" />
    <path
       d="m 111.20613,12.575877 0,-5.6009157 0.85437,0 0,0.7963637 c 0.41137,-0.6152866 1.00556,-0.9229324 1.78259,-0.9229381 0.33753,5.7e-6 0.64693,0.061535 0.92821,0.1845876 0.28479,0.1195479 0.49751,0.2777657 0.63815,0.4746539 0.14063,0.1968984 0.23908,0.4307091 0.29534,0.701433 0.0352,0.1758019 0.0527,0.4834477 0.0527,0.9229381 l 0,3.4438775 -0.94931,0 0,-3.40696 c 0,-0.3867512 -0.0369,-0.6750592 -0.11075,-0.8649248 -0.0738,-0.1933731 -0.20569,-0.346317 -0.39555,-0.4588321 -0.18635,-0.1160217 -0.40609,-0.1740349 -0.65924,-0.1740398 -0.40434,4.9e-6 -0.75417,0.1283371 -1.04951,0.3849971 -0.29183,0.2566689 -0.43774,0.7436282 -0.43774,1.4608792 l 0,3.0588804 -0.9493,0"
       id="path4027"
       style="font-size:10.80101299px;font-variant:normal;font-stretch:normal;letter-spacing:-0.39517495px;fill:#ffffff;font-family:Arial;-inkscape-font-specification:Arial" />
  </g>
  <g
     transform="matrix(0.61892911,0,0,0.61892911,2.9331351,3.8812972)"
     id="icomoon-ignore" />
  <path
     d="m 6.0722112,12.256078 q 0,-1.062189 0.5721502,-1.961208 Q 7.2165117,9.395851 8.1809039,8.9466043 8.164691,8.7013225 8.164691,8.5951552 q 0,-1.7326635 1.2258869,-2.9580273 1.2258861,-1.2253639 2.9580261,-1.2258868 1.275048,0 2.333056,0.7107424 1.058007,0.7107424 1.540202,1.8874683 0.579997,-0.5067767 1.356634,-0.5067767 0.866072,0 1.479014,0.6129435 0.612944,0.6129436 0.612944,1.4790139 0,0.6213115 -0.335236,1.1275655 1.062191,0.253126 1.744692,1.107167 0.682501,0.854041 0.682501,1.94918 0,1.299106 -0.919415,2.218521 -0.919415,0.919415 -2.21852,0.919415 H 9.733659 q -1.511962,0 -2.5861819,-1.074743 -1.0742199,-1.074743 -1.074743,-2.586182 z m 4.1839138,-1.830461 q 0,0.114535 0.07374,0.187754 0.07374,0.07322 0.187753,0.07374 h 1.830461 v 2.87644 q 0,0.106162 0.0774,0.184092 0.07741,0.07792 0.184093,0.0774 h 1.568967 q 0.106163,0 0.184092,-0.0774 0.07793,-0.07741 0.07741,-0.184092 v -2.87644 h 1.830462 q 0.106163,0 0.184093,-0.07741 0.07793,-0.07741 0.0774,-0.184092 0,-0.114535 -0.07374,-0.187754 l -2.87644,-2.8764408 q -0.07374,-0.073739 -0.187753,-0.073739 -0.114014,0 -0.187753,0.073739 l -2.868081,2.8680738 q -0.08159,0.0978 -0.08159,0.196121 z"
     id="path3924"
     style="fill:#ffffff" />
</svg>
